<?xml version="1.0" standalone="no"?>
<!DOCTYPE svg PUBLIC "-//W3C//DTD SVG 1.1//EN"
"http://www.w3.org/Graphics/SVG/1.1/DTD/svg11.dtd">

<svg width="862" height="1064" view_box="0 0 862 1064"
xmlns="http://www.w3.org/2000/svg"
xmlns:link="http://www.w3.org/1999/xlink">\n\n<desc>Généré par Mocodo 2.3.7 le Wed, 02 Feb 2022 07:18:14</desc>

<rect id="frame" x="0" y="0" width="862" height="1064" fill="#f7f7f7" stroke="none" stroke-width="0"/>

<!-- Association contient -->
<line x1="370" y1="170" x2="466" y2="170" stroke="#8073ac" stroke-width="2"/>
<text x="407" y="162.0" fill="#b35806" font-family="Verdana" font-size="12">0,N</text>
<line x1="595" y1="170" x2="466" y2="170" stroke="#8073ac" stroke-width="2"/>
<text x="531" y="187.0" fill="#b35806" font-family="Verdana" font-size="12">1,1</text>
<g id="association-contient">
	<path d="M 484 145 a 14 14 90 0 1 14 14 V 170 h -64 V 159 a 14 14 90 0 1 14 -14" fill="#b2abd2" stroke="#b2abd2" stroke-width="0"/>
	<path d="M 498 170.0 v 11 a 14 14 90 0 1 -14 14 H 448 a 14 14 90 0 1 -14 -14 V 170.0 H 64" fill="#d8daeb" stroke="#d8daeb" stroke-width="0"/>
	<rect x="434" y="145" width="64" height="50" fill="none" rx="14" stroke="#8073ac" stroke-width="2"/>
	<line x1="434" y1="170" x2="498" y2="170" stroke="#8073ac" stroke-width="1"/>
	<text x="441" y="162.7" fill="#000000" font-family="Verdana" font-size="12">contient</text>
</g>

<!-- Association appartient -->
<line x1="595" y1="170" x2="704" y2="170" stroke="#8073ac" stroke-width="2"/>
<text x="638" y="187.0" fill="#b35806" font-family="Verdana" font-size="12">1,N</text>
<line x1="812" y1="170" x2="704" y2="170" stroke="#8073ac" stroke-width="2"/>
<text x="749" y="187.0" fill="#b35806" font-family="Verdana" font-size="12">1,1</text>
<g id="association-appartient">
	<path d="M 729 145 a 14 14 90 0 1 14 14 V 170 h -78 V 159 a 14 14 90 0 1 14 -14" fill="#b2abd2" stroke="#b2abd2" stroke-width="0"/>
	<path d="M 743 170.0 v 11 a 14 14 90 0 1 -14 14 H 679 a 14 14 90 0 1 -14 -14 V 170.0 H 78" fill="#d8daeb" stroke="#d8daeb" stroke-width="0"/>
	<rect x="665" y="145" width="78" height="50" fill="none" rx="14" stroke="#8073ac" stroke-width="2"/>
	<line x1="665" y1="170" x2="743" y2="170" stroke="#8073ac" stroke-width="1"/>
	<text x="672" y="162.7" fill="#000000" font-family="Verdana" font-size="12">appartient</text>
</g>

<!-- Association choisirTheme -->
<line x1="134" y1="77" x2="246" y2="170" stroke="#8073ac" stroke-width="2"/>
<text x="168" y="99.2284920502" fill="#b35806" font-family="Verdana" font-size="12">1,1</text>
<line x1="370" y1="170" x2="246" y2="170" stroke="#8073ac" stroke-width="2"/>
<text x="312" y="187.0" fill="#b35806" font-family="Verdana" font-size="12">1,1</text>
<g id="association-choisirTheme">
	<path d="M 280 145 a 14 14 90 0 1 14 14 V 170 h -96 V 159 a 14 14 90 0 1 14 -14" fill="#b2abd2" stroke="#b2abd2" stroke-width="0"/>
	<path d="M 294 170.0 v 11 a 14 14 90 0 1 -14 14 H 212 a 14 14 90 0 1 -14 -14 V 170.0 H 96" fill="#d8daeb" stroke="#d8daeb" stroke-width="0"/>
	<rect x="198" y="145" width="96" height="50" fill="none" rx="14" stroke="#8073ac" stroke-width="2"/>
	<line x1="198" y1="170" x2="294" y2="170" stroke="#8073ac" stroke-width="1"/>
	<text x="205" y="162.7" fill="#000000" font-family="Verdana" font-size="12">choisirTheme</text>
</g>

<!-- Association stockerRep -->
<line x1="812" y1="170" x2="812" y2="338" stroke="#8073ac" stroke-width="2"/>
<text x="817.0" y="221" fill="#b35806" font-family="Verdana" font-size="12">1,1</text>
<line x1="370" y1="860" x2="812" y2="338" stroke="#8073ac" stroke-width="2"/>
<text x="417" y="821.15421466" fill="#b35806" font-family="Verdana" font-size="12">1,1</text>
<g id="association-stockerRep">
	<path d="M 839 313 a 14 14 90 0 1 14 14 V 338 h -82 V 327 a 14 14 90 0 1 14 -14" fill="#b2abd2" stroke="#b2abd2" stroke-width="0"/>
	<path d="M 853 338.0 v 11 a 14 14 90 0 1 -14 14 H 785 a 14 14 90 0 1 -14 -14 V 338.0 H 82" fill="#d8daeb" stroke="#d8daeb" stroke-width="0"/>
	<rect x="771" y="313" width="82" height="50" fill="none" rx="14" stroke="#8073ac" stroke-width="2"/>
	<line x1="771" y1="338" x2="853" y2="338" stroke="#8073ac" stroke-width="1"/>
	<text x="778" y="330.7" fill="#000000" font-family="Verdana" font-size="12">stockerRep</text>
</g>

<!-- Association stockerQuest -->
<line x1="595" y1="170" x2="595" y2="288" stroke="#8073ac" stroke-width="2"/>
<text x="600.0" y="255" fill="#b35806" font-family="Verdana" font-size="12">1,N</text>
<line x1="370" y1="860" x2="595" y2="288" stroke="#8073ac" stroke-width="2"/>
<text x="417" y="767.147516196" fill="#b35806" font-family="Verdana" font-size="12">1,1</text>
<g id="association-stockerQuest">
	<path d="M 628 263 a 14 14 90 0 1 14 14 V 288 h -94 V 277 a 14 14 90 0 1 14 -14" fill="#b2abd2" stroke="#b2abd2" stroke-width="0"/>
	<path d="M 642 288.0 v 11 a 14 14 90 0 1 -14 14 H 562 a 14 14 90 0 1 -14 -14 V 288.0 H 94" fill="#d8daeb" stroke="#d8daeb" stroke-width="0"/>
	<rect x="548" y="263" width="94" height="50" fill="none" rx="14" stroke="#8073ac" stroke-width="2"/>
	<line x1="548" y1="288" x2="642" y2="288" stroke="#8073ac" stroke-width="1"/>
	<text x="555" y="280.7" fill="#000000" font-family="Verdana" font-size="12">stockerQuest</text>
</g>

<!-- Association voirHistorique -->
<line x1="134" y1="77" x2="246" y2="860" stroke="#8073ac" stroke-width="2"/>
<text x="117.799180191" y="162" fill="#b35806" font-family="Verdana" font-size="12">0,N</text>
<line x1="370" y1="860" x2="246" y2="860" stroke="#8073ac" stroke-width="2"/>
<text x="302" y="877.0" fill="#b35806" font-family="Verdana" font-size="12">1,1</text>
<g id="association-voirHistorique">
	<path d="M 282 835 a 14 14 90 0 1 14 14 V 860 h -100 V 849 a 14 14 90 0 1 14 -14" fill="#b2abd2" stroke="#b2abd2" stroke-width="0"/>
	<path d="M 296 860.0 v 11 a 14 14 90 0 1 -14 14 H 210 a 14 14 90 0 1 -14 -14 V 860.0 H 100" fill="#d8daeb" stroke="#d8daeb" stroke-width="0"/>
	<rect x="196" y="835" width="100" height="50" fill="none" rx="14" stroke="#8073ac" stroke-width="2"/>
	<line x1="196" y1="860" x2="296" y2="860" stroke="#8073ac" stroke-width="1"/>
	<text x="203" y="852.7" fill="#000000" font-family="Verdana" font-size="12">voirHistorique</text>
</g>

<!-- Association voirScore -->
<line x1="134" y1="77" x2="370" y2="388" stroke="#8073ac" stroke-width="2"/>
<text x="168" y="112.928708817" fill="#b35806" font-family="Verdana" font-size="12">0,N</text>
<line x1="370" y1="489" x2="370" y2="388" stroke="#8073ac" stroke-width="2"/>
<text x="375.0" y="430" fill="#b35806" font-family="Verdana" font-size="12">1,1</text>
<g id="association-voirScore">
	<path d="M 392 363 a 14 14 90 0 1 14 14 V 388 h -72 V 377 a 14 14 90 0 1 14 -14" fill="#b2abd2" stroke="#b2abd2" stroke-width="0"/>
	<path d="M 406 388.0 v 11 a 14 14 90 0 1 -14 14 H 348 a 14 14 90 0 1 -14 -14 V 388.0 H 72" fill="#d8daeb" stroke="#d8daeb" stroke-width="0"/>
	<rect x="334" y="363" width="72" height="50" fill="none" rx="14" stroke="#8073ac" stroke-width="2"/>
	<line x1="334" y1="388" x2="406" y2="388" stroke="#8073ac" stroke-width="1"/>
	<text x="341" y="380.7" fill="#000000" font-family="Verdana" font-size="12">voirScore</text>
</g>

<!-- Association stockerScore -->
<line x1="370" y1="489" x2="370" y2="590" stroke="#8073ac" stroke-width="2"/>
<text x="375.0" y="557" fill="#b35806" font-family="Verdana" font-size="12">0,1</text>
<line x1="370" y1="860" x2="370" y2="590" stroke="#8073ac" stroke-width="2"/>
<text x="343.0" y="657" fill="#b35806" font-family="Verdana" font-size="12">0,N</text>
<g id="association-stockerScore">
	<path d="M 403 565 a 14 14 90 0 1 14 14 V 590 h -94 V 579 a 14 14 90 0 1 14 -14" fill="#b2abd2" stroke="#b2abd2" stroke-width="0"/>
	<path d="M 417 590.0 v 11 a 14 14 90 0 1 -14 14 H 337 a 14 14 90 0 1 -14 -14 V 590.0 H 94" fill="#d8daeb" stroke="#d8daeb" stroke-width="0"/>
	<rect x="323" y="565" width="94" height="50" fill="none" rx="14" stroke="#8073ac" stroke-width="2"/>
	<line x1="323" y1="590" x2="417" y2="590" stroke="#8073ac" stroke-width="1"/>
	<text x="330" y="582.7" fill="#000000" font-family="Verdana" font-size="12">stockerScore</text>
</g>

<!-- Association stockerTheme -->
<line x1="370" y1="170" x2="466" y2="288" stroke="#8073ac" stroke-width="2"/>
<text x="377.709379151" y="221" fill="#b35806" font-family="Verdana" font-size="12">1,1</text>
<line x1="370" y1="860" x2="466" y2="288" stroke="#8073ac" stroke-width="2"/>
<text x="376.995176176" y="657" fill="#b35806" font-family="Verdana" font-size="12">1,N</text>
<g id="association-stockerTheme">
	<path d="M 502 263 a 14 14 90 0 1 14 14 V 288 h -100 V 277 a 14 14 90 0 1 14 -14" fill="#b2abd2" stroke="#b2abd2" stroke-width="0"/>
	<path d="M 516 288.0 v 11 a 14 14 90 0 1 -14 14 H 430 a 14 14 90 0 1 -14 -14 V 288.0 H 100" fill="#d8daeb" stroke="#d8daeb" stroke-width="0"/>
	<rect x="416" y="263" width="100" height="50" fill="none" rx="14" stroke="#8073ac" stroke-width="2"/>
	<line x1="416" y1="288" x2="516" y2="288" stroke="#8073ac" stroke-width="1"/>
	<text x="423" y="280.7" fill="#000000" font-family="Verdana" font-size="12">stockerTheme</text>
</g>

<!-- Association connexion -->
<line x1="134" y1="77" x2="246" y2="77" stroke="#8073ac" stroke-width="2"/>
<text x="168" y="69.0" fill="#b35806" font-family="Verdana" font-size="12">1,1</text>
<line x1="370" y1="77" x2="246" y2="77" stroke="#8073ac" stroke-width="2"/>
<text x="310" y="94.0" fill="#b35806" font-family="Verdana" font-size="12">1,1</text>
<g id="association-connexion">
	<path d="M 283 52 a 14 14 90 0 1 14 14 V 77 h -102 V 66 a 14 14 90 0 1 14 -14" fill="#b2abd2" stroke="#b2abd2" stroke-width="0"/>
	<path d="M 297 77.0 v 11 a 14 14 90 0 1 -14 14 H 209 a 14 14 90 0 1 -14 -14 V 77.0 H 102" fill="#d8daeb" stroke="#d8daeb" stroke-width="0"/>
	<rect x="195" y="52" width="102" height="50" fill="none" rx="14" stroke="#8073ac" stroke-width="2"/>
	<line x1="195" y1="77" x2="297" y2="77" stroke="#8073ac" stroke-width="1"/>
	<text x="215" y="69.7" fill="#000000" font-family="Verdana" font-size="12">connexion</text>
	<text x="202" y="94.8" fill="#000000" font-family="Verdana" font-size="12">dateHeureCnx</text>
</g>

<!-- Entity session -->
<g id="entity-session">
	<g id="frame-session">
		<rect x="336" y="52" width="68" height="25" fill="#fdb863" stroke="#fdb863" stroke-width="0"/>
		<rect x="336" y="77.0" width="68" height="25" fill="#fee0b6" stroke="#fee0b6" stroke-width="0"/>
		<rect x="336" y="52" width="68" height="50" fill="none" stroke="#e08214" stroke-width="2"/>
		<line x1="336" y1="77" x2="404" y2="77" stroke="#e08214" stroke-width="1"/>
	</g>
	<text x="347" y="69.7" fill="#000000" font-family="Verdana" font-size="12">session</text>
	<text x="341" y="94.8" fill="#000000" font-family="Verdana" font-size="12">idSession</text>
	<line x1="341" y1="97" x2="399" y2="97" stroke="#000000" stroke-width="1"/>
</g>

<!-- Entity historique -->
<g id="entity-historique">
	<g id="frame-historique">
		<rect x="328" y="665" width="84" height="25" fill="#fdb863" stroke="#fdb863" stroke-width="0"/>
		<rect x="328" y="690.0" width="84" height="365" fill="#fee0b6" stroke="#fee0b6" stroke-width="0"/>
		<rect x="328" y="665" width="84" height="390" fill="none" stroke="#e08214" stroke-width="2"/>
		<line x1="328" y1="690" x2="412" y2="690" stroke="#e08214" stroke-width="1"/>
	</g>
	<text x="339" y="682.7" fill="#000000" font-family="Verdana" font-size="12">historique</text>
	<text x="333" y="707.7" fill="#000000" font-family="Verdana" font-size="12">idHistorique</text>
	<line x1="333" y1="710" x2="406" y2="710" stroke="#000000" stroke-width="1"/>
	<text x="333" y="724.7" fill="#000000" font-family="Verdana" font-size="12">idHistoQ1</text>
	<text x="333" y="741.7" fill="#000000" font-family="Verdana" font-size="12">idHistoR1</text>
	<text x="333" y="758.7" fill="#000000" font-family="Verdana" font-size="12">idHistoQ2</text>
	<text x="333" y="775.7" fill="#000000" font-family="Verdana" font-size="12">idHistoR2</text>
	<text x="333" y="792.7" fill="#000000" font-family="Verdana" font-size="12">idHistoQ3</text>
	<text x="333" y="809.7" fill="#000000" font-family="Verdana" font-size="12">idHistoR3</text>
	<text x="333" y="826.7" fill="#000000" font-family="Verdana" font-size="12">idHistoQ4</text>
	<text x="333" y="843.7" fill="#000000" font-family="Verdana" font-size="12">idHistoR4</text>
	<text x="333" y="860.8" fill="#000000" font-family="Verdana" font-size="12">idHistoQ5</text>
	<text x="333" y="877.8" fill="#000000" font-family="Verdana" font-size="12">idHistoR5</text>
	<text x="333" y="894.8" fill="#000000" font-family="Verdana" font-size="12">idHistoQ6</text>
	<text x="333" y="911.8" fill="#000000" font-family="Verdana" font-size="12">idHistoR6</text>
	<text x="333" y="928.8" fill="#000000" font-family="Verdana" font-size="12">idHistoQ7</text>
	<text x="333" y="945.8" fill="#000000" font-family="Verdana" font-size="12">idHistoR7</text>
	<text x="333" y="962.8" fill="#000000" font-family="Verdana" font-size="12">idHistoQ8</text>
	<text x="333" y="979.8" fill="#000000" font-family="Verdana" font-size="12">idHistoR8</text>
	<text x="333" y="996.8" fill="#000000" font-family="Verdana" font-size="12">idHistoQ9</text>
	<text x="333" y="1013.8" fill="#000000" font-family="Verdana" font-size="12">idHistoR9</text>
	<text x="333" y="1030.8" fill="#000000" font-family="Verdana" font-size="12">idHistoQ10</text>
	<text x="333" y="1047.8" fill="#000000" font-family="Verdana" font-size="12">idHistoR10</text>
</g>

<!-- Entity question -->
<g id="entity-question">
	<g id="frame-question">
		<rect x="557" y="102" width="76" height="25" fill="#fdb863" stroke="#fdb863" stroke-width="0"/>
		<rect x="557" y="127.0" width="76" height="111" fill="#fee0b6" stroke="#fee0b6" stroke-width="0"/>
		<rect x="557" y="102" width="76" height="136" fill="none" stroke="#e08214" stroke-width="2"/>
		<line x1="557" y1="127" x2="633" y2="127" stroke="#e08214" stroke-width="1"/>
	</g>
	<text x="569" y="119.7" fill="#000000" font-family="Verdana" font-size="12">question</text>
	<text x="562" y="144.7" fill="#000000" font-family="Verdana" font-size="12">idQuestion</text>
	<line x1="562" y1="147" x2="627" y2="147" stroke="#000000" stroke-width="1"/>
	<text x="562" y="161.7" fill="#000000" font-family="Verdana" font-size="12">libelle</text>
	<text x="562" y="178.8" fill="#000000" font-family="Verdana" font-size="12">idRep1</text>
	<text x="562" y="195.8" fill="#000000" font-family="Verdana" font-size="12">idRep2</text>
	<text x="562" y="212.8" fill="#000000" font-family="Verdana" font-size="12">idRep3</text>
	<text x="562" y="229.8" fill="#000000" font-family="Verdana" font-size="12">idRep4</text>
</g>

<!-- Entity reponse -->
<g id="entity-reponse">
	<g id="frame-reponse">
		<rect x="775" y="136" width="74" height="25" fill="#fdb863" stroke="#fdb863" stroke-width="0"/>
		<rect x="775" y="161.0" width="74" height="43" fill="#fee0b6" stroke="#fee0b6" stroke-width="0"/>
		<rect x="775" y="136" width="74" height="68" fill="none" stroke="#e08214" stroke-width="2"/>
		<line x1="775" y1="161" x2="849" y2="161" stroke="#e08214" stroke-width="1"/>
	</g>
	<text x="787" y="153.7" fill="#000000" font-family="Verdana" font-size="12">reponse</text>
	<text x="780" y="178.8" fill="#000000" font-family="Verdana" font-size="12">idReponse</text>
	<line x1="780" y1="181" x2="843" y2="181" stroke="#000000" stroke-width="1"/>
	<text x="780" y="195.8" fill="#000000" font-family="Verdana" font-size="12">libelle</text>
</g>

<!-- Entity theme -->
<g id="entity-theme">
	<g id="frame-theme">
		<rect x="338" y="136" width="64" height="25" fill="#fdb863" stroke="#fdb863" stroke-width="0"/>
		<rect x="338" y="161.0" width="64" height="43" fill="#fee0b6" stroke="#fee0b6" stroke-width="0"/>
		<rect x="338" y="136" width="64" height="68" fill="none" stroke="#e08214" stroke-width="2"/>
		<line x1="338" y1="161" x2="402" y2="161" stroke="#e08214" stroke-width="1"/>
	</g>
	<text x="350" y="153.7" fill="#000000" font-family="Verdana" font-size="12">theme</text>
	<text x="343" y="178.8" fill="#000000" font-family="Verdana" font-size="12">idTheme</text>
	<line x1="343" y1="181" x2="396" y2="181" stroke="#000000" stroke-width="1"/>
	<text x="343" y="195.8" fill="#000000" font-family="Verdana" font-size="12">libelle</text>
</g>

<!-- Entity score -->
<g id="entity-score">
	<g id="frame-score">
		<rect x="330" y="438" width="80" height="25" fill="#fdb863" stroke="#fdb863" stroke-width="0"/>
		<rect x="330" y="463.0" width="80" height="77" fill="#fee0b6" stroke="#fee0b6" stroke-width="0"/>
		<rect x="330" y="438" width="80" height="102" fill="none" stroke="#e08214" stroke-width="2"/>
		<line x1="330" y1="463" x2="410" y2="463" stroke="#e08214" stroke-width="1"/>
	</g>
	<text x="353" y="455.7" fill="#000000" font-family="Verdana" font-size="12">score</text>
	<text x="335" y="480.7" fill="#000000" font-family="Verdana" font-size="12">idScore</text>
	<line x1="335" y1="483" x2="381" y2="483" stroke="#000000" stroke-width="1"/>
	<text x="335" y="497.8" fill="#000000" font-family="Verdana" font-size="12">resultat</text>
	<text x="335" y="514.8" fill="#000000" font-family="Verdana" font-size="12">nbRepTrue</text>
	<text x="335" y="531.8" fill="#000000" font-family="Verdana" font-size="12">nbRepFalse</text>
</g>

<!-- Entity user -->
<g id="entity-user">
	<g id="frame-user">
		<rect x="105" y="9" width="58" height="25" fill="#fdb863" stroke="#fdb863" stroke-width="0"/>
		<rect x="105" y="34.0" width="58" height="111" fill="#fee0b6" stroke="#fee0b6" stroke-width="0"/>
		<rect x="105" y="9" width="58" height="136" fill="none" stroke="#e08214" stroke-width="2"/>
		<line x1="105" y1="34" x2="163" y2="34" stroke="#e08214" stroke-width="1"/>
	</g>
	<text x="120" y="26.7" fill="#000000" font-family="Verdana" font-size="12">user</text>
	<text x="110" y="51.7" fill="#000000" font-family="Verdana" font-size="12">idUser</text>
	<line x1="110" y1="54" x2="149" y2="54" stroke="#000000" stroke-width="1"/>
	<text x="110" y="68.7" fill="#000000" font-family="Verdana" font-size="12">nom</text>
	<text x="110" y="85.8" fill="#000000" font-family="Verdana" font-size="12">prenom</text>
	<text x="110" y="102.8" fill="#000000" font-family="Verdana" font-size="12">email</text>
	<text x="110" y="119.8" fill="#000000" font-family="Verdana" font-size="12">pseudo</text>
	<text x="110" y="136.8" fill="#000000" font-family="Verdana" font-size="12">pwd</text>
</g>
</svg>